<?xml version="1.0" encoding="utf-8"?>
<svg xmlns="http://www.w3.org/2000/svg" xmlns:xlink="http://www.w3.org/1999/xlink" width="352.5" zoomAndPan="magnify" viewBox="7.5 131.25 352.5 93.75" height="93.75" preserveAspectRatio="xMidYMid meet" version="1.0">
  <defs>
    <g />
    <clipPath id="id1">
      <path d="M 19.917969 133.441406 L 90.417969 133.441406 L 90.417969 215.191406 L 19.917969 215.191406 Z M 19.917969 133.441406 " clip-rule="nonzero" />
    </clipPath>
  </defs>
  <g fill="#000000" fill-opacity="1">
    <g transform="translate(44.751538, 198.494665)">
      <g>
        <path d="M 11.65625 -8.46875 L 11.65625 -5.453125 C 11.65625 -3.609375 11.207031 -2.191406 10.3125 -1.203125 C 9.414062 -0.222656 8.085938 0.265625 6.328125 0.265625 C 4.578125 0.265625 3.25 -0.222656 2.34375 -1.203125 C 1.445312 -2.191406 1 -3.609375 1 -5.453125 L 1 -17.265625 C 1 -19.109375 1.445312 -20.519531 2.34375 -21.5 C 3.25 -22.488281 4.578125 -22.984375 6.328125 -22.984375 C 8.085938 -22.984375 9.414062 -22.488281 10.3125 -21.5 C 11.207031 -20.519531 11.65625 -19.109375 11.65625 -17.265625 L 11.65625 -15.0625 L 8.28125 -15.0625 L 8.28125 -17.5 C 8.28125 -18.320312 8.109375 -18.898438 7.765625 -19.234375 C 7.429688 -19.566406 6.984375 -19.734375 6.421875 -19.734375 C 5.859375 -19.734375 5.410156 -19.566406 5.078125 -19.234375 C 4.742188 -18.898438 4.578125 -18.320312 4.578125 -17.5 L 4.578125 -5.234375 C 4.578125 -4.410156 4.742188 -3.832031 5.078125 -3.5 C 5.410156 -3.175781 5.859375 -3.015625 6.421875 -3.015625 C 6.984375 -3.015625 7.429688 -3.175781 7.765625 -3.5 C 8.109375 -3.832031 8.28125 -4.410156 8.28125 -5.234375 L 8.28125 -8.46875 Z M 11.65625 -8.46875 " />
      </g>
    </g>
  </g>
  <g fill="#000000" fill-opacity="1">
    <g transform="translate(57.281479, 198.494665)">
      <g>
        <path d="M 4.578125 -5.234375 C 4.578125 -4.410156 4.742188 -3.828125 5.078125 -3.484375 C 5.410156 -3.148438 5.859375 -2.984375 6.421875 -2.984375 C 6.984375 -2.984375 7.429688 -3.148438 7.765625 -3.484375 C 8.109375 -3.828125 8.28125 -4.410156 8.28125 -5.234375 L 8.28125 -17.5 C 8.28125 -18.320312 8.109375 -18.898438 7.765625 -19.234375 C 7.429688 -19.566406 6.984375 -19.734375 6.421875 -19.734375 C 5.859375 -19.734375 5.410156 -19.566406 5.078125 -19.234375 C 4.742188 -18.898438 4.578125 -18.320312 4.578125 -17.5 Z M 1 -17.265625 C 1 -19.109375 1.460938 -20.519531 2.390625 -21.5 C 3.328125 -22.488281 4.671875 -22.984375 6.421875 -22.984375 C 8.179688 -22.984375 9.523438 -22.488281 10.453125 -21.5 C 11.378906 -20.519531 11.84375 -19.109375 11.84375 -17.265625 L 11.84375 -5.453125 C 11.84375 -3.609375 11.378906 -2.191406 10.453125 -1.203125 C 9.523438 -0.222656 8.179688 0.265625 6.421875 0.265625 C 4.671875 0.265625 3.328125 -0.222656 2.390625 -1.203125 C 1.460938 -2.191406 1 -3.609375 1 -5.453125 Z M 1 -17.265625 " />
      </g>
    </g>
  </g>
  <g fill="#000000" fill-opacity="1">
    <g transform="translate(70.136031, 198.494665)">
      <g>
        <path d="M 4.484375 -16.46875 L 4.484375 0 L 1.265625 0 L 1.265625 -22.734375 L 5.75 -22.734375 L 9.421875 -9.125 L 9.421875 -22.734375 L 12.59375 -22.734375 L 12.59375 0 L 8.921875 0 Z M 4.484375 -16.46875 " />
      </g>
    </g>
  </g>
  <g fill="#000000" fill-opacity="1">
    <g transform="translate(83.996874, 198.494665)">
      <g>
        <path d="M 1.296875 -22.734375 L 6.953125 -22.734375 C 8.742188 -22.734375 10.078125 -22.253906 10.953125 -21.296875 C 11.828125 -20.347656 12.265625 -18.953125 12.265625 -17.109375 L 12.265625 -5.609375 C 12.265625 -3.773438 11.828125 -2.378906 10.953125 -1.421875 C 10.078125 -0.472656 8.742188 0 6.953125 0 L 1.296875 0 Z M 4.875 -19.484375 L 4.875 -3.25 L 6.890625 -3.25 C 7.453125 -3.25 7.894531 -3.410156 8.21875 -3.734375 C 8.539062 -4.054688 8.703125 -4.628906 8.703125 -5.453125 L 8.703125 -17.265625 C 8.703125 -18.085938 8.539062 -18.660156 8.21875 -18.984375 C 7.894531 -19.316406 7.453125 -19.484375 6.890625 -19.484375 Z M 4.875 -19.484375 " />
      </g>
    </g>
  </g>
  <g fill="#000000" fill-opacity="1">
    <g transform="translate(97.240961, 198.494665)">
      <g>
        <path d="M 4.578125 -5.234375 C 4.578125 -4.410156 4.742188 -3.828125 5.078125 -3.484375 C 5.410156 -3.148438 5.859375 -2.984375 6.421875 -2.984375 C 6.984375 -2.984375 7.429688 -3.148438 7.765625 -3.484375 C 8.109375 -3.828125 8.28125 -4.410156 8.28125 -5.234375 L 8.28125 -17.5 C 8.28125 -18.320312 8.109375 -18.898438 7.765625 -19.234375 C 7.429688 -19.566406 6.984375 -19.734375 6.421875 -19.734375 C 5.859375 -19.734375 5.410156 -19.566406 5.078125 -19.234375 C 4.742188 -18.898438 4.578125 -18.320312 4.578125 -17.5 Z M 1 -17.265625 C 1 -19.109375 1.460938 -20.519531 2.390625 -21.5 C 3.328125 -22.488281 4.671875 -22.984375 6.421875 -22.984375 C 8.179688 -22.984375 9.523438 -22.488281 10.453125 -21.5 C 11.378906 -20.519531 11.84375 -19.109375 11.84375 -17.265625 L 11.84375 -5.453125 C 11.84375 -3.609375 11.378906 -2.191406 10.453125 -1.203125 C 9.523438 -0.222656 8.179688 0.265625 6.421875 0.265625 C 4.671875 0.265625 3.328125 -0.222656 2.390625 -1.203125 C 1.460938 -2.191406 1 -3.609375 1 -5.453125 Z M 1 -17.265625 " />
      </g>
    </g>
  </g>
  <g fill="#000000" fill-opacity="1">
    <g transform="translate(110.095513, 198.494665)">
      <g>
        <path d="M 8.859375 -6.59375 L 11.296875 -22.734375 L 16.265625 -22.734375 L 16.265625 0 L 12.890625 0 L 12.890625 -16.296875 L 10.421875 0 L 7.046875 0 L 4.390625 -16.078125 L 4.390625 0 L 1.265625 0 L 1.265625 -22.734375 L 6.234375 -22.734375 Z M 8.859375 -6.59375 " />
      </g>
    </g>
  </g>
  <g fill="#000000" fill-opacity="1">
    <g transform="translate(127.656906, 198.494665)">
      <g>
        <path d="M 1.296875 -22.734375 L 4.875 -22.734375 L 4.875 0 L 1.296875 0 Z M 1.296875 -22.734375 " />
      </g>
    </g>
  </g>
  <g fill="#000000" fill-opacity="1">
    <g transform="translate(133.824492, 198.494665)">
      <g>
        <path d="M 4.484375 -16.46875 L 4.484375 0 L 1.265625 0 L 1.265625 -22.734375 L 5.75 -22.734375 L 9.421875 -9.125 L 9.421875 -22.734375 L 12.59375 -22.734375 L 12.59375 0 L 8.921875 0 Z M 4.484375 -16.46875 " />
      </g>
    </g>
  </g>
  <g fill="#000000" fill-opacity="1">
    <g transform="translate(147.685335, 198.494665)">
      <g>
        <path d="M 1.296875 -22.734375 L 4.875 -22.734375 L 4.875 0 L 1.296875 0 Z M 1.296875 -22.734375 " />
      </g>
    </g>
  </g>
  <g fill="#000000" fill-opacity="1">
    <g transform="translate(153.852922, 198.494665)">
      <g>
        <path d="M 4.703125 -22.734375 L 4.703125 -5.1875 C 4.703125 -4.375 4.867188 -3.800781 5.203125 -3.46875 C 5.546875 -3.144531 6 -2.984375 6.5625 -2.984375 C 7.125 -2.984375 7.570312 -3.144531 7.90625 -3.46875 C 8.238281 -3.800781 8.40625 -4.375 8.40625 -5.1875 L 8.40625 -22.734375 L 11.78125 -22.734375 L 11.78125 -5.421875 C 11.78125 -3.578125 11.332031 -2.160156 10.4375 -1.171875 C 9.539062 -0.191406 8.21875 0.296875 6.46875 0.296875 C 4.707031 0.296875 3.378906 -0.191406 2.484375 -1.171875 C 1.585938 -2.160156 1.140625 -3.578125 1.140625 -5.421875 L 1.140625 -22.734375 Z M 4.703125 -22.734375 " />
      </g>
    </g>
  </g>
  <g fill="#000000" fill-opacity="1">
    <g transform="translate(166.772397, 198.494665)">
      <g>
        <path d="M 8.859375 -6.59375 L 11.296875 -22.734375 L 16.265625 -22.734375 L 16.265625 0 L 12.890625 0 L 12.890625 -16.296875 L 10.421875 0 L 7.046875 0 L 4.390625 -16.078125 L 4.390625 0 L 1.265625 0 L 1.265625 -22.734375 L 6.234375 -22.734375 Z M 8.859375 -6.59375 " />
      </g>
    </g>
  </g>
  <g fill="#000000" fill-opacity="1">
    <g transform="translate(184.333789, 198.494665)">
      <g />
    </g>
  </g>
  <g fill="#000000" fill-opacity="1">
    <g transform="translate(189.365241, 198.494665)">
      <g>
        <path d="M 12.859375 0 L 9.25 0 L 8.640625 -4.125 L 4.25 -4.125 L 3.640625 0 L 0.359375 0 L 4 -22.734375 L 9.21875 -22.734375 Z M 4.703125 -7.203125 L 8.15625 -7.203125 L 6.421875 -18.703125 Z M 4.703125 -7.203125 " />
      </g>
    </g>
  </g>
  <g fill="#000000" fill-opacity="1">
    <g transform="translate(202.576861, 198.494665)">
      <g>
        <path d="M 1.296875 -22.734375 L 6.953125 -22.734375 C 8.742188 -22.734375 10.078125 -22.253906 10.953125 -21.296875 C 11.828125 -20.347656 12.265625 -18.953125 12.265625 -17.109375 L 12.265625 -5.609375 C 12.265625 -3.773438 11.828125 -2.378906 10.953125 -1.421875 C 10.078125 -0.472656 8.742188 0 6.953125 0 L 1.296875 0 Z M 4.875 -19.484375 L 4.875 -3.25 L 6.890625 -3.25 C 7.453125 -3.25 7.894531 -3.410156 8.21875 -3.734375 C 8.539062 -4.054688 8.703125 -4.628906 8.703125 -5.453125 L 8.703125 -17.265625 C 8.703125 -18.085938 8.539062 -18.660156 8.21875 -18.984375 C 7.894531 -19.316406 7.453125 -19.484375 6.890625 -19.484375 Z M 4.875 -19.484375 " />
      </g>
    </g>
  </g>
  <g fill="#000000" fill-opacity="1">
    <g transform="translate(215.820947, 198.494665)">
      <g>
        <path d="M 8.859375 -6.59375 L 11.296875 -22.734375 L 16.265625 -22.734375 L 16.265625 0 L 12.890625 0 L 12.890625 -16.296875 L 10.421875 0 L 7.046875 0 L 4.390625 -16.078125 L 4.390625 0 L 1.265625 0 L 1.265625 -22.734375 L 6.234375 -22.734375 Z M 8.859375 -6.59375 " />
      </g>
    </g>
  </g>
  <g fill="#000000" fill-opacity="1">
    <g transform="translate(233.38234, 198.494665)">
      <g>
        <path d="M 1.296875 -22.734375 L 4.875 -22.734375 L 4.875 0 L 1.296875 0 Z M 1.296875 -22.734375 " />
      </g>
    </g>
  </g>
  <g fill="#000000" fill-opacity="1">
    <g transform="translate(239.549927, 198.494665)">
      <g>
        <path d="M 4.484375 -16.46875 L 4.484375 0 L 1.265625 0 L 1.265625 -22.734375 L 5.75 -22.734375 L 9.421875 -9.125 L 9.421875 -22.734375 L 12.59375 -22.734375 L 12.59375 0 L 8.921875 0 Z M 4.484375 -16.46875 " />
      </g>
    </g>
  </g>
  <g fill="#000000" fill-opacity="1">
    <g transform="translate(253.410781, 198.494665)">
      <g>
        <path d="M 1.296875 -22.734375 L 4.875 -22.734375 L 4.875 0 L 1.296875 0 Z M 1.296875 -22.734375 " />
      </g>
    </g>
  </g>
  <g fill="#000000" fill-opacity="1">
    <g transform="translate(259.578368, 198.494665)">
      <g>
        <path d="M 0.84375 -17.265625 C 0.84375 -19.109375 1.28125 -20.519531 2.15625 -21.5 C 3.03125 -22.488281 4.347656 -22.984375 6.109375 -22.984375 C 7.859375 -22.984375 9.171875 -22.488281 10.046875 -21.5 C 10.921875 -20.519531 11.359375 -19.109375 11.359375 -17.265625 L 11.359375 -16.5625 L 7.984375 -16.5625 L 7.984375 -17.5 C 7.984375 -18.320312 7.828125 -18.898438 7.515625 -19.234375 C 7.203125 -19.566406 6.765625 -19.734375 6.203125 -19.734375 C 5.640625 -19.734375 5.203125 -19.566406 4.890625 -19.234375 C 4.578125 -18.898438 4.421875 -18.320312 4.421875 -17.5 C 4.421875 -16.71875 4.59375 -16.03125 4.9375 -15.4375 C 5.28125 -14.84375 5.710938 -14.28125 6.234375 -13.75 C 6.753906 -13.21875 7.3125 -12.6875 7.90625 -12.15625 C 8.5 -11.625 9.054688 -11.046875 9.578125 -10.421875 C 10.097656 -9.796875 10.53125 -9.082031 10.875 -8.28125 C 11.21875 -7.476562 11.390625 -6.535156 11.390625 -5.453125 C 11.390625 -3.609375 10.941406 -2.191406 10.046875 -1.203125 C 9.148438 -0.222656 7.828125 0.265625 6.078125 0.265625 C 4.316406 0.265625 2.988281 -0.222656 2.09375 -1.203125 C 1.195312 -2.191406 0.75 -3.609375 0.75 -5.453125 L 0.75 -6.84375 L 4.125 -6.84375 L 4.125 -5.234375 C 4.125 -4.410156 4.289062 -3.832031 4.625 -3.5 C 4.957031 -3.175781 5.40625 -3.015625 5.96875 -3.015625 C 6.53125 -3.015625 6.976562 -3.175781 7.3125 -3.5 C 7.65625 -3.832031 7.828125 -4.410156 7.828125 -5.234375 C 7.828125 -6.003906 7.648438 -6.6875 7.296875 -7.28125 C 6.953125 -7.882812 6.519531 -8.445312 6 -8.96875 C 5.488281 -9.5 4.929688 -10.03125 4.328125 -10.5625 C 3.734375 -11.09375 3.175781 -11.671875 2.65625 -12.296875 C 2.144531 -12.929688 1.710938 -13.648438 1.359375 -14.453125 C 1.015625 -15.253906 0.84375 -16.191406 0.84375 -17.265625 Z M 0.84375 -17.265625 " />
      </g>
    </g>
  </g>
  <g fill="#000000" fill-opacity="1">
    <g transform="translate(271.718763, 198.494665)">
      <g>
        <path d="M 0.265625 -22.734375 L 11.296875 -22.734375 L 11.296875 -19.484375 L 7.5625 -19.484375 L 7.5625 0 L 4 0 L 4 -19.484375 L 0.265625 -19.484375 Z M 0.265625 -22.734375 " />
      </g>
    </g>
  </g>
  <g fill="#000000" fill-opacity="1">
    <g transform="translate(283.274869, 198.494665)">
      <g>
        <path d="M 8.765625 0 C 8.722656 -0.15625 8.679688 -0.296875 8.640625 -0.421875 C 8.597656 -0.546875 8.554688 -0.707031 8.515625 -0.90625 C 8.484375 -1.101562 8.460938 -1.351562 8.453125 -1.65625 C 8.441406 -1.957031 8.4375 -2.335938 8.4375 -2.796875 L 8.4375 -6.359375 C 8.4375 -7.421875 8.253906 -8.164062 7.890625 -8.59375 C 7.523438 -9.03125 6.929688 -9.25 6.109375 -9.25 L 4.875 -9.25 L 4.875 0 L 1.296875 0 L 1.296875 -22.734375 L 6.6875 -22.734375 C 8.550781 -22.734375 9.898438 -22.296875 10.734375 -21.421875 C 11.566406 -20.554688 11.984375 -19.25 11.984375 -17.5 L 11.984375 -15.71875 C 11.984375 -13.375 11.203125 -11.835938 9.640625 -11.109375 C 10.546875 -10.734375 11.164062 -10.128906 11.5 -9.296875 C 11.84375 -8.460938 12.015625 -7.453125 12.015625 -6.265625 L 12.015625 -2.765625 C 12.015625 -2.203125 12.035156 -1.707031 12.078125 -1.28125 C 12.117188 -0.863281 12.226562 -0.4375 12.40625 0 Z M 4.875 -19.484375 L 4.875 -12.5 L 6.265625 -12.5 C 6.929688 -12.5 7.453125 -12.671875 7.828125 -13.015625 C 8.210938 -13.367188 8.40625 -14 8.40625 -14.90625 L 8.40625 -17.140625 C 8.40625 -17.960938 8.257812 -18.554688 7.96875 -18.921875 C 7.675781 -19.296875 7.21875 -19.484375 6.59375 -19.484375 Z M 4.875 -19.484375 " />
      </g>
    </g>
  </g>
  <g fill="#000000" fill-opacity="1">
    <g transform="translate(296.3242, 198.494665)">
      <g>
        <path d="M 12.859375 0 L 9.25 0 L 8.640625 -4.125 L 4.25 -4.125 L 3.640625 0 L 0.359375 0 L 4 -22.734375 L 9.21875 -22.734375 Z M 4.703125 -7.203125 L 8.15625 -7.203125 L 6.421875 -18.703125 Z M 4.703125 -7.203125 " />
      </g>
    </g>
  </g>
  <g fill="#000000" fill-opacity="1">
    <g transform="translate(309.535808, 198.494665)">
      <g>
        <path d="M 0.265625 -22.734375 L 11.296875 -22.734375 L 11.296875 -19.484375 L 7.5625 -19.484375 L 7.5625 0 L 4 0 L 4 -19.484375 L 0.265625 -19.484375 Z M 0.265625 -22.734375 " />
      </g>
    </g>
  </g>
  <g fill="#000000" fill-opacity="1">
    <g transform="translate(321.091914, 198.494665)">
      <g>
        <path d="M 4.578125 -5.234375 C 4.578125 -4.410156 4.742188 -3.828125 5.078125 -3.484375 C 5.410156 -3.148438 5.859375 -2.984375 6.421875 -2.984375 C 6.984375 -2.984375 7.429688 -3.148438 7.765625 -3.484375 C 8.109375 -3.828125 8.28125 -4.410156 8.28125 -5.234375 L 8.28125 -17.5 C 8.28125 -18.320312 8.109375 -18.898438 7.765625 -19.234375 C 7.429688 -19.566406 6.984375 -19.734375 6.421875 -19.734375 C 5.859375 -19.734375 5.410156 -19.566406 5.078125 -19.234375 C 4.742188 -18.898438 4.578125 -18.320312 4.578125 -17.5 Z M 1 -17.265625 C 1 -19.109375 1.460938 -20.519531 2.390625 -21.5 C 3.328125 -22.488281 4.671875 -22.984375 6.421875 -22.984375 C 8.179688 -22.984375 9.523438 -22.488281 10.453125 -21.5 C 11.378906 -20.519531 11.84375 -19.109375 11.84375 -17.265625 L 11.84375 -5.453125 C 11.84375 -3.609375 11.378906 -2.191406 10.453125 -1.203125 C 9.523438 -0.222656 8.179688 0.265625 6.421875 0.265625 C 4.671875 0.265625 3.328125 -0.222656 2.390625 -1.203125 C 1.460938 -2.191406 1 -3.609375 1 -5.453125 Z M 1 -17.265625 " />
      </g>
    </g>
  </g>
  <g fill="#000000" fill-opacity="1">
    <g transform="translate(333.946466, 198.494665)">
      <g>
        <path d="M 8.765625 0 C 8.722656 -0.15625 8.679688 -0.296875 8.640625 -0.421875 C 8.597656 -0.546875 8.554688 -0.707031 8.515625 -0.90625 C 8.484375 -1.101562 8.460938 -1.351562 8.453125 -1.65625 C 8.441406 -1.957031 8.4375 -2.335938 8.4375 -2.796875 L 8.4375 -6.359375 C 8.4375 -7.421875 8.253906 -8.164062 7.890625 -8.59375 C 7.523438 -9.03125 6.929688 -9.25 6.109375 -9.25 L 4.875 -9.25 L 4.875 0 L 1.296875 0 L 1.296875 -22.734375 L 6.6875 -22.734375 C 8.550781 -22.734375 9.898438 -22.296875 10.734375 -21.421875 C 11.566406 -20.554688 11.984375 -19.25 11.984375 -17.5 L 11.984375 -15.71875 C 11.984375 -13.375 11.203125 -11.835938 9.640625 -11.109375 C 10.546875 -10.734375 11.164062 -10.128906 11.5 -9.296875 C 11.84375 -8.460938 12.015625 -7.453125 12.015625 -6.265625 L 12.015625 -2.765625 C 12.015625 -2.203125 12.035156 -1.707031 12.078125 -1.28125 C 12.117188 -0.863281 12.226562 -0.4375 12.40625 0 Z M 4.875 -19.484375 L 4.875 -12.5 L 6.265625 -12.5 C 6.929688 -12.5 7.453125 -12.671875 7.828125 -13.015625 C 8.210938 -13.367188 8.40625 -14 8.40625 -14.90625 L 8.40625 -17.140625 C 8.40625 -17.960938 8.257812 -18.554688 7.96875 -18.921875 C 7.675781 -19.296875 7.21875 -19.484375 6.59375 -19.484375 Z M 4.875 -19.484375 " />
      </g>
    </g>
  </g>
  <g clip-path="url(#id1)">
    <path fill="#ff914d" d="M 78.097656 215.183594 L 32.007812 215.183594 C 31.214844 215.183594 30.433594 215.105469 29.65625 214.949219 C 28.882812 214.792969 28.128906 214.5625 27.398438 214.253906 C 26.667969 213.949219 25.972656 213.574219 25.316406 213.132812 C 24.660156 212.691406 24.050781 212.1875 23.492188 211.625 C 22.933594 211.058594 22.433594 210.445312 21.992188 209.785156 C 21.554688 209.121094 21.183594 208.421875 20.878906 207.6875 C 20.578125 206.949219 20.347656 206.191406 20.191406 205.410156 C 20.039062 204.628906 19.960938 203.839844 19.957031 203.042969 L 19.957031 170.484375 C 19.957031 168.933594 20.242188 167.441406 20.816406 166.007812 C 21.394531 164.570312 22.21875 163.296875 23.289062 162.1875 L 47.945312 136.492188 C 48.40625 136.007812 48.910156 135.578125 49.457031 135.199219 C 50 134.820312 50.582031 134.496094 51.191406 134.234375 C 51.800781 133.972656 52.433594 133.777344 53.082031 133.640625 C 53.730469 133.507812 54.390625 133.441406 55.054688 133.441406 C 55.714844 133.441406 56.375 133.507812 57.023438 133.640625 C 57.671875 133.777344 58.304688 133.972656 58.914062 134.234375 C 59.523438 134.496094 60.105469 134.820312 60.648438 135.199219 C 61.195312 135.578125 61.699219 136.007812 62.160156 136.492188 L 89.117188 164.582031 C 89.457031 164.933594 89.71875 165.335938 89.898438 165.792969 C 90.078125 166.25 90.164062 166.722656 90.15625 167.214844 C 90.152344 167.707031 90.050781 168.179688 89.855469 168.628906 C 89.664062 169.082031 89.390625 169.476562 89.039062 169.820312 C 88.691406 170.160156 88.289062 170.421875 87.835938 170.601562 C 87.378906 170.78125 86.910156 170.867188 86.421875 170.855469 C 85.933594 170.847656 85.46875 170.742188 85.019531 170.546875 C 84.574219 170.347656 84.183594 170.074219 83.84375 169.71875 L 56.886719 141.636719 C 56.648438 141.382812 56.371094 141.1875 56.050781 141.046875 C 55.734375 140.90625 55.398438 140.839844 55.054688 140.839844 C 54.707031 140.839844 54.371094 140.90625 54.054688 141.046875 C 53.734375 141.1875 53.457031 141.382812 53.21875 141.636719 L 28.558594 167.324219 C 27.714844 168.207031 27.292969 169.265625 27.300781 170.492188 L 27.300781 203.042969 C 27.304688 203.355469 27.332031 203.664062 27.394531 203.96875 C 27.453125 204.277344 27.542969 204.574219 27.664062 204.859375 C 27.78125 205.148438 27.925781 205.421875 28.097656 205.679688 C 28.269531 205.941406 28.464844 206.179688 28.683594 206.402344 C 28.902344 206.621094 29.140625 206.816406 29.398438 206.992188 C 29.65625 207.164062 29.925781 207.3125 30.214844 207.429688 C 30.5 207.550781 30.792969 207.640625 31.097656 207.703125 C 31.402344 207.761719 31.707031 207.792969 32.015625 207.792969 L 78.109375 207.792969 C 78.597656 207.792969 79.0625 207.886719 79.511719 208.074219 C 79.960938 208.261719 80.359375 208.53125 80.703125 208.875 C 81.046875 209.222656 81.3125 209.621094 81.496094 210.074219 C 81.683594 210.527344 81.777344 211 81.777344 211.488281 C 81.777344 211.980469 81.683594 212.449219 81.496094 212.902344 C 81.3125 213.355469 81.046875 213.753906 80.703125 214.101562 C 80.359375 214.449219 79.960938 214.714844 79.511719 214.902344 C 79.0625 215.089844 78.597656 215.183594 78.109375 215.183594 Z M 78.097656 215.183594 " fill-opacity="1" fill-rule="nonzero" />
  </g>
</svg>