<?xml version="1.0" encoding="utf-8"?>
<svg xmlns="http://www.w3.org/2000/svg" xmlns:xlink="http://www.w3.org/1999/xlink" width="86.25" zoomAndPan="magnify" viewBox="153.75 56.25 86.25 93.75" height="93.75" preserveAspectRatio="xMidYMid meet" version="1.0">
  <defs>
    <g />
    <clipPath id="id1">
      <path d="M 161.582031 60.5 L 232 60.5 L 232 142.25 L 161.582031 142.25 Z M 161.582031 60.5 " clip-rule="nonzero" />
    </clipPath>
  </defs>
  <g clip-path="url(#id1)">
    <path fill="#ff914d" d="M 219.761719 142.242188 L 173.667969 142.242188 C 172.878906 142.242188 172.097656 142.160156 171.320312 142.007812 C 170.546875 141.851562 169.792969 141.617188 169.0625 141.3125 C 168.332031 141.007812 167.636719 140.632812 166.980469 140.191406 C 166.324219 139.75 165.714844 139.246094 165.15625 138.679688 C 164.597656 138.117188 164.097656 137.503906 163.65625 136.84375 C 163.21875 136.179688 162.847656 135.480469 162.542969 134.746094 C 162.242188 134.007812 162.011719 133.25 161.855469 132.46875 C 161.703125 131.6875 161.625 130.898438 161.621094 130.101562 L 161.621094 97.539062 C 161.621094 95.992188 161.90625 94.5 162.480469 93.066406 C 163.058594 91.628906 163.882812 90.355469 164.953125 89.246094 L 189.609375 63.546875 C 190.070312 63.066406 190.574219 62.636719 191.117188 62.257812 C 191.664062 61.875 192.242188 61.554688 192.855469 61.292969 C 193.464844 61.03125 194.09375 60.835938 194.746094 60.699219 C 195.394531 60.566406 196.054688 60.5 196.714844 60.5 C 197.378906 60.5 198.035156 60.566406 198.6875 60.699219 C 199.335938 60.835938 199.96875 61.03125 200.578125 61.292969 C 201.1875 61.554688 201.765625 61.875 202.3125 62.257812 C 202.859375 62.636719 203.363281 63.066406 203.824219 63.546875 L 230.78125 91.640625 C 231.121094 91.992188 231.378906 92.394531 231.5625 92.851562 C 231.742188 93.308594 231.828125 93.78125 231.820312 94.273438 C 231.816406 94.765625 231.714844 95.238281 231.519531 95.6875 C 231.328125 96.136719 231.054688 96.535156 230.703125 96.875 C 230.355469 97.21875 229.953125 97.480469 229.496094 97.660156 C 229.042969 97.839844 228.574219 97.925781 228.085938 97.914062 C 227.597656 97.90625 227.132812 97.800781 226.683594 97.605469 C 226.238281 97.40625 225.84375 97.132812 225.507812 96.777344 L 198.550781 68.695312 C 198.3125 68.441406 198.035156 68.242188 197.714844 68.105469 C 197.398438 67.964844 197.0625 67.894531 196.714844 67.894531 C 196.371094 67.894531 196.035156 67.964844 195.71875 68.105469 C 195.398438 68.242188 195.121094 68.441406 194.882812 68.695312 L 170.222656 94.382812 C 169.378906 95.265625 168.957031 96.320312 168.964844 97.550781 L 168.964844 130.101562 C 168.964844 130.414062 168.996094 130.722656 169.058594 131.027344 C 169.117188 131.332031 169.207031 131.628906 169.328125 131.917969 C 169.445312 132.207031 169.589844 132.480469 169.761719 132.738281 C 169.933594 133 170.128906 133.238281 170.347656 133.457031 C 170.566406 133.679688 170.804688 133.875 171.0625 134.050781 C 171.320312 134.222656 171.589844 134.371094 171.878906 134.488281 C 172.164062 134.609375 172.457031 134.699219 172.761719 134.757812 C 173.0625 134.820312 173.371094 134.851562 173.679688 134.851562 L 219.773438 134.851562 C 220.261719 134.851562 220.726562 134.945312 221.175781 135.132812 C 221.625 135.320312 222.023438 135.585938 222.367188 135.933594 C 222.710938 136.28125 222.976562 136.679688 223.160156 137.132812 C 223.347656 137.585938 223.441406 138.058594 223.441406 138.546875 C 223.441406 139.035156 223.347656 139.507812 223.160156 139.960938 C 222.976562 140.414062 222.710938 140.8125 222.367188 141.160156 C 222.023438 141.507812 221.625 141.773438 221.175781 141.960938 C 220.726562 142.148438 220.261719 142.242188 219.773438 142.242188 Z M 219.761719 142.242188 " fill-opacity="1" fill-rule="nonzero" />
  </g>
  <g fill="#000000" fill-opacity="1">
    <g transform="translate(178.961537, 122.022825)">
      <g>
        <path d="M 19.75 -14.359375 L 19.75 -9.234375 C 19.75 -6.117188 18.988281 -3.726562 17.46875 -2.0625 C 15.945312 -0.394531 13.695312 0.4375 10.71875 0.4375 C 7.75 0.4375 5.503906 -0.394531 3.984375 -2.0625 C 2.460938 -3.726562 1.703125 -6.117188 1.703125 -9.234375 L 1.703125 -29.265625 C 1.703125 -32.378906 2.460938 -34.769531 3.984375 -36.4375 C 5.503906 -38.101562 7.75 -38.9375 10.71875 -38.9375 C 13.695312 -38.9375 15.945312 -38.101562 17.46875 -36.4375 C 18.988281 -34.769531 19.75 -32.378906 19.75 -29.265625 L 19.75 -25.515625 L 14.03125 -25.515625 L 14.03125 -29.640625 C 14.03125 -31.035156 13.742188 -32.015625 13.171875 -32.578125 C 12.597656 -33.148438 11.835938 -33.4375 10.890625 -33.4375 C 9.929688 -33.4375 9.164062 -33.148438 8.59375 -32.578125 C 8.03125 -32.015625 7.75 -31.035156 7.75 -29.640625 L 7.75 -8.859375 C 7.75 -7.460938 8.03125 -6.488281 8.59375 -5.9375 C 9.164062 -5.382812 9.929688 -5.109375 10.890625 -5.109375 C 11.835938 -5.109375 12.597656 -5.382812 13.171875 -5.9375 C 13.742188 -6.488281 14.03125 -7.460938 14.03125 -8.859375 L 14.03125 -14.359375 Z M 19.75 -14.359375 " />
      </g>
    </g>
  </g>
  <g fill="#000000" fill-opacity="1">
    <g transform="translate(198.942003, 131.516389)">
      <g>
        <path d="M 21.78125 0 L 15.671875 0 L 14.625 -6.984375 L 7.203125 -6.984375 L 6.15625 0 L 0.609375 0 L 6.765625 -38.5 L 15.625 -38.5 Z M 7.96875 -12.203125 L 13.8125 -12.203125 L 10.890625 -31.6875 Z M 7.96875 -12.203125 " />
      </g>
    </g>
  </g>
</svg>