<svg xmlns="http://www.w3.org/2000/svg" xmlns:xlink="http://www.w3.org/1999/xlink" width="435" zoomAndPan="magnify" viewBox="0 0 326.25 374.999991" height="500" preserveAspectRatio="xMidYMid meet" version="1.0"><defs><clipPath id="id1"><path d="M 0.171875 0.429688 L 324 0.429688 L 324 374.570312 L 0.171875 374.570312 Z M 0.171875 0.429688 " clip-rule="nonzero"/></clipPath><clipPath id="id2"><path d="M 139 232.039062 L 185.355469 232.039062 L 185.355469 321.535156 L 139 321.535156 Z M 139 232.039062 " clip-rule="nonzero"/></clipPath></defs><g clip-path="url(#id1)"><path fill="#ff914d" d="M 268.230469 374.945312 L 55.882812 374.945312 C 54.066406 374.945312 52.253906 374.851562 50.445312 374.671875 C 48.636719 374.492188 46.84375 374.222656 45.058594 373.867188 C 43.277344 373.507812 41.519531 373.066406 39.78125 372.535156 C 38.042969 372.003906 36.332031 371.390625 34.65625 370.695312 C 32.976562 369.996094 31.335938 369.21875 29.734375 368.359375 C 28.132812 367.5 26.574219 366.5625 25.066406 365.550781 C 23.554688 364.539062 22.097656 363.453125 20.691406 362.300781 C 19.289062 361.144531 17.945312 359.921875 16.660156 358.632812 C 15.375 357.347656 14.15625 356 13 354.589844 C 11.847656 353.183594 10.765625 351.722656 9.757812 350.210938 C 8.746094 348.695312 7.8125 347.136719 6.957031 345.53125 C 6.097656 343.925781 5.324219 342.28125 4.625 340.597656 C 3.929688 338.917969 3.316406 337.203125 2.789062 335.460938 C 2.257812 333.71875 1.816406 331.957031 1.460938 330.171875 C 1.105469 328.382812 0.835938 326.585938 0.65625 324.773438 C 0.476562 322.960938 0.386719 321.144531 0.382812 319.324219 L 0.382812 170.140625 C 0.375 166.625 0.703125 163.144531 1.371094 159.695312 C 2.035156 156.246094 3.027344 152.890625 4.339844 149.632812 C 5.65625 146.375 7.269531 143.273438 9.183594 140.332031 C 11.097656 137.386719 13.277344 134.652344 15.71875 132.132812 L 129.316406 14.398438 C 130.375 13.296875 131.484375 12.25 132.644531 11.261719 C 133.808594 10.273438 135.015625 9.34375 136.269531 8.476562 C 137.527344 7.609375 138.820312 6.808594 140.15625 6.070312 C 141.492188 5.332031 142.863281 4.667969 144.265625 4.066406 C 145.667969 3.46875 147.097656 2.941406 148.554688 2.488281 C 150.007812 2.035156 151.484375 1.652344 152.976562 1.347656 C 154.472656 1.042969 155.976562 0.8125 157.492188 0.660156 C 159.011719 0.507812 160.53125 0.429688 162.054688 0.429688 C 163.582031 0.429688 165.101562 0.507812 166.621094 0.660156 C 168.136719 0.8125 169.640625 1.042969 171.136719 1.347656 C 172.628906 1.652344 174.105469 2.035156 175.558594 2.488281 C 177.015625 2.941406 178.445312 3.46875 179.847656 4.066406 C 181.25 4.667969 182.621094 5.332031 183.957031 6.070312 C 185.292969 6.808594 186.585938 7.609375 187.84375 8.476562 C 189.097656 9.34375 190.304688 10.273438 191.46875 11.261719 C 192.628906 12.25 193.738281 13.296875 194.796875 14.398438 L 318.980469 143.101562 C 319.367188 143.5 319.734375 143.917969 320.082031 144.351562 C 320.429688 144.785156 320.753906 145.234375 321.054688 145.703125 C 321.359375 146.167969 321.636719 146.648438 321.890625 147.140625 C 322.148438 147.636719 322.378906 148.140625 322.582031 148.65625 C 322.789062 149.175781 322.96875 149.699219 323.121094 150.234375 C 323.277344 150.769531 323.402344 151.308594 323.503906 151.855469 C 323.605469 152.402344 323.679688 152.953125 323.726562 153.507812 C 323.769531 154.0625 323.789062 154.617188 323.78125 155.171875 C 323.773438 155.726562 323.738281 156.28125 323.675781 156.835938 C 323.613281 157.386719 323.523438 157.933594 323.410156 158.480469 C 323.292969 159.023438 323.148438 159.558594 322.980469 160.089844 C 322.8125 160.617188 322.617188 161.136719 322.394531 161.648438 C 322.175781 162.160156 321.929688 162.65625 321.660156 163.144531 C 321.390625 163.628906 321.097656 164.101562 320.785156 164.558594 C 320.46875 165.015625 320.128906 165.457031 319.773438 165.878906 C 319.414062 166.304688 319.035156 166.710938 318.636719 167.097656 C 318.234375 167.484375 317.820312 167.847656 317.382812 168.195312 C 316.949219 168.539062 316.5 168.863281 316.03125 169.164062 C 315.566406 169.464844 315.085938 169.742188 314.589844 169.996094 C 314.097656 170.25 313.59375 170.476562 313.078125 170.679688 C 312.558594 170.882812 312.035156 171.0625 311.5 171.214844 C 310.96875 171.367188 310.425781 171.492188 309.882812 171.589844 C 309.335938 171.6875 308.785156 171.757812 308.234375 171.800781 C 307.679688 171.847656 307.125 171.863281 306.570312 171.851562 C 306.015625 171.84375 305.464844 171.804688 304.914062 171.738281 C 304.359375 171.671875 303.816406 171.582031 303.273438 171.460938 C 302.730469 171.34375 302.195312 171.199219 301.667969 171.027344 C 301.140625 170.851562 300.621094 170.65625 300.113281 170.433594 C 299.605469 170.210938 299.109375 169.960938 298.625 169.691406 C 298.144531 169.417969 297.671875 169.121094 297.21875 168.804688 C 296.761719 168.484375 296.324219 168.144531 295.902344 167.785156 C 295.484375 167.421875 295.082031 167.039062 294.695312 166.636719 L 170.503906 37.980469 C 169.960938 37.402344 169.367188 36.886719 168.71875 36.429688 C 168.070312 35.972656 167.382812 35.589844 166.65625 35.273438 C 165.933594 34.957031 165.179688 34.71875 164.40625 34.558594 C 163.632812 34.398438 162.847656 34.316406 162.054688 34.316406 C 161.265625 34.316406 160.480469 34.398438 159.707031 34.558594 C 158.933594 34.71875 158.179688 34.957031 157.457031 35.273438 C 156.730469 35.589844 156.042969 35.972656 155.394531 36.429688 C 154.746094 36.886719 154.152344 37.402344 153.609375 37.980469 L 40.003906 155.667969 C 39.078125 156.632812 38.25 157.679688 37.523438 158.804688 C 36.800781 159.929688 36.1875 161.113281 35.691406 162.355469 C 35.195312 163.597656 34.824219 164.878906 34.574219 166.195312 C 34.324219 167.511719 34.207031 168.839844 34.214844 170.179688 L 34.214844 319.324219 C 34.214844 320.035156 34.25 320.746094 34.320312 321.457031 C 34.390625 322.164062 34.496094 322.867188 34.636719 323.566406 C 34.777344 324.265625 34.949219 324.957031 35.15625 325.636719 C 35.363281 326.320312 35.601562 326.988281 35.875 327.648438 C 36.148438 328.304688 36.453125 328.949219 36.785156 329.578125 C 37.121094 330.207031 37.488281 330.816406 37.882812 331.410156 C 38.277344 332 38.703125 332.574219 39.152344 333.125 C 39.605469 333.675781 40.082031 334.203125 40.582031 334.707031 C 41.085938 335.210938 41.613281 335.6875 42.160156 336.140625 C 42.710938 336.589844 43.28125 337.015625 43.871094 337.410156 C 44.464844 337.808594 45.074219 338.175781 45.699219 338.511719 C 46.328125 338.847656 46.96875 339.152344 47.625 339.425781 C 48.28125 339.699219 48.949219 339.9375 49.628906 340.144531 C 50.3125 340.351562 51 340.527344 51.695312 340.664062 C 52.394531 340.804688 53.097656 340.910156 53.804688 340.980469 C 54.511719 341.050781 55.21875 341.089844 55.929688 341.089844 L 268.277344 341.089844 C 268.832031 341.089844 269.382812 341.117188 269.933594 341.171875 C 270.484375 341.226562 271.03125 341.304688 271.574219 341.414062 C 272.117188 341.523438 272.652344 341.65625 273.179688 341.816406 C 273.710938 341.980469 274.230469 342.164062 274.742188 342.378906 C 275.253906 342.589844 275.753906 342.828125 276.242188 343.085938 C 276.730469 343.347656 277.203125 343.632812 277.664062 343.941406 C 278.121094 344.25 278.566406 344.578125 278.992188 344.929688 C 279.421875 345.28125 279.832031 345.65625 280.222656 346.046875 C 280.613281 346.4375 280.984375 346.847656 281.335938 347.277344 C 281.6875 347.707031 282.015625 348.152344 282.324219 348.613281 C 282.628906 349.074219 282.914062 349.546875 283.175781 350.039062 C 283.4375 350.527344 283.671875 351.027344 283.882812 351.539062 C 284.09375 352.050781 284.28125 352.574219 284.441406 353.101562 C 284.601562 353.632812 284.738281 354.171875 284.84375 354.714844 C 284.953125 355.257812 285.035156 355.804688 285.089844 356.359375 C 285.140625 356.910156 285.167969 357.464844 285.167969 358.015625 C 285.167969 358.570312 285.140625 359.125 285.089844 359.675781 C 285.035156 360.226562 284.953125 360.777344 284.84375 361.320312 C 284.738281 361.863281 284.601562 362.402344 284.441406 362.929688 C 284.28125 363.460938 284.09375 363.984375 283.882812 364.496094 C 283.671875 365.007812 283.4375 365.507812 283.175781 365.996094 C 282.914062 366.484375 282.628906 366.960938 282.324219 367.421875 C 282.015625 367.882812 281.6875 368.328125 281.335938 368.757812 C 280.984375 369.183594 280.613281 369.59375 280.222656 369.988281 C 279.832031 370.378906 279.421875 370.75 278.992188 371.101562 C 278.566406 371.453125 278.121094 371.785156 277.664062 372.09375 C 277.203125 372.402344 276.730469 372.683594 276.242188 372.945312 C 275.753906 373.207031 275.253906 373.445312 274.742188 373.65625 C 274.230469 373.871094 273.710938 374.054688 273.179688 374.21875 C 272.652344 374.378906 272.117188 374.511719 271.574219 374.621094 C 271.03125 374.730469 270.484375 374.808594 269.933594 374.863281 C 269.382812 374.917969 268.832031 374.945312 268.277344 374.945312 Z M 268.230469 374.945312 " fill-opacity="1" fill-rule="nonzero"/></g><g clip-path="url(#id2)"><path fill="#005954" d="M 185.304688 256.164062 C 185.304688 242.839844 174.941406 232.039062 162.152344 232.039062 C 149.367188 232.039062 139 242.839844 139 256.164062 C 139 265.476562 144.066406 273.558594 151.484375 277.578125 L 141.421875 321.535156 L 182.882812 321.535156 L 172.824219 277.578125 C 180.238281 273.558594 185.304688 265.476562 185.304688 256.164062 Z M 185.304688 256.164062 " fill-opacity="1" fill-rule="nonzero"/></g></svg>