<svg xmlns="http://www.w3.org/2000/svg" xmlns:xlink="http://www.w3.org/1999/xlink" width="500" zoomAndPan="magnify" viewBox="0 0 375 169.5" height="226" preserveAspectRatio="xMidYMid meet" version="1.0"><defs><g/><clipPath id="id1"><path d="M 0.550781 0 L 131.921875 0 L 131.921875 151.609375 L 0.550781 151.609375 Z M 0.550781 0 " clip-rule="nonzero"/></clipPath><clipPath id="id2"><path d="M 59.296875 93.75 L 78.082031 93.75 L 78.082031 129.972656 L 59.296875 129.972656 Z M 59.296875 93.75 " clip-rule="nonzero"/></clipPath><clipPath id="id3"><path d="M 73.285156 3.007812 L 135.726562 3.007812 L 135.726562 74.117188 L 73.285156 74.117188 Z M 73.285156 3.007812 " clip-rule="nonzero"/></clipPath></defs><g fill="#005954" fill-opacity="1"><g transform="translate(132.264336, 105.860448)"><g><path d="M 18.953125 -13.78125 L 18.953125 -8.875 C 18.953125 -5.875 18.21875 -3.570312 16.75 -1.96875 C 15.289062 -0.375 13.140625 0.421875 10.296875 0.421875 C 7.441406 0.421875 5.285156 -0.375 3.828125 -1.96875 C 2.367188 -3.570312 1.640625 -5.875 1.640625 -8.875 L 1.640625 -28.078125 C 1.640625 -31.066406 2.367188 -33.363281 3.828125 -34.96875 C 5.285156 -36.570312 7.441406 -37.375 10.296875 -37.375 C 13.140625 -37.375 15.289062 -36.570312 16.75 -34.96875 C 18.21875 -33.363281 18.953125 -31.066406 18.953125 -28.078125 L 18.953125 -24.484375 L 13.453125 -24.484375 L 13.453125 -28.453125 C 13.453125 -29.785156 13.179688 -30.722656 12.640625 -31.265625 C 12.097656 -31.816406 11.367188 -32.09375 10.453125 -32.09375 C 9.535156 -32.09375 8.800781 -31.816406 8.25 -31.265625 C 7.707031 -30.722656 7.4375 -29.785156 7.4375 -28.453125 L 7.4375 -8.5 C 7.4375 -7.15625 7.707031 -6.21875 8.25 -5.6875 C 8.800781 -5.164062 9.535156 -4.90625 10.453125 -4.90625 C 11.367188 -4.90625 12.097656 -5.164062 12.640625 -5.6875 C 13.179688 -6.21875 13.453125 -7.15625 13.453125 -8.5 L 13.453125 -13.78125 Z M 18.953125 -13.78125 "/></g></g></g><g fill="#005954" fill-opacity="1"><g transform="translate(152.631678, 105.860448)"><g><path d="M 7.4375 -8.5 C 7.4375 -7.15625 7.707031 -6.210938 8.25 -5.671875 C 8.800781 -5.128906 9.535156 -4.859375 10.453125 -4.859375 C 11.367188 -4.859375 12.097656 -5.128906 12.640625 -5.671875 C 13.179688 -6.210938 13.453125 -7.15625 13.453125 -8.5 L 13.453125 -28.453125 C 13.453125 -29.785156 13.179688 -30.722656 12.640625 -31.265625 C 12.097656 -31.816406 11.367188 -32.09375 10.453125 -32.09375 C 9.535156 -32.09375 8.800781 -31.816406 8.25 -31.265625 C 7.707031 -30.722656 7.4375 -29.785156 7.4375 -28.453125 Z M 1.640625 -28.078125 C 1.640625 -31.066406 2.394531 -33.363281 3.90625 -34.96875 C 5.414062 -36.570312 7.597656 -37.375 10.453125 -37.375 C 13.296875 -37.375 15.472656 -36.570312 16.984375 -34.96875 C 18.503906 -33.363281 19.265625 -31.066406 19.265625 -28.078125 L 19.265625 -8.875 C 19.265625 -5.875 18.503906 -3.570312 16.984375 -1.96875 C 15.472656 -0.375 13.296875 0.421875 10.453125 0.421875 C 7.597656 0.421875 5.414062 -0.375 3.90625 -1.96875 C 2.394531 -3.570312 1.640625 -5.875 1.640625 -8.875 Z M 1.640625 -28.078125 "/></g></g></g><g fill="#005954" fill-opacity="1"><g transform="translate(173.526675, 105.860448)"><g><path d="M 7.28125 -26.765625 L 7.28125 0 L 2.0625 0 L 2.0625 -36.953125 L 9.34375 -36.953125 L 15.3125 -14.828125 L 15.3125 -36.953125 L 20.484375 -36.953125 L 20.484375 0 L 14.515625 0 Z M 7.28125 -26.765625 "/></g></g></g><g fill="#005954" fill-opacity="1"><g transform="translate(196.057391, 105.860448)"><g><path d="M 2.109375 -36.953125 L 11.296875 -36.953125 C 14.210938 -36.953125 16.382812 -36.175781 17.8125 -34.625 C 19.238281 -33.070312 19.953125 -30.800781 19.953125 -27.8125 L 19.953125 -9.125 C 19.953125 -6.132812 19.238281 -3.863281 17.8125 -2.3125 C 16.382812 -0.769531 14.210938 0 11.296875 0 L 2.109375 0 Z M 7.921875 -31.671875 L 7.921875 -5.28125 L 11.1875 -5.28125 C 12.101562 -5.28125 12.820312 -5.539062 13.34375 -6.0625 C 13.875 -6.59375 14.140625 -7.53125 14.140625 -8.875 L 14.140625 -28.078125 C 14.140625 -29.410156 13.875 -30.34375 13.34375 -30.875 C 12.820312 -31.40625 12.101562 -31.671875 11.1875 -31.671875 Z M 7.921875 -31.671875 "/></g></g></g><g fill="#005954" fill-opacity="1"><g transform="translate(217.585573, 105.860448)"><g><path d="M 7.4375 -8.5 C 7.4375 -7.15625 7.707031 -6.210938 8.25 -5.671875 C 8.800781 -5.128906 9.535156 -4.859375 10.453125 -4.859375 C 11.367188 -4.859375 12.097656 -5.128906 12.640625 -5.671875 C 13.179688 -6.210938 13.453125 -7.15625 13.453125 -8.5 L 13.453125 -28.453125 C 13.453125 -29.785156 13.179688 -30.722656 12.640625 -31.265625 C 12.097656 -31.816406 11.367188 -32.09375 10.453125 -32.09375 C 9.535156 -32.09375 8.800781 -31.816406 8.25 -31.265625 C 7.707031 -30.722656 7.4375 -29.785156 7.4375 -28.453125 Z M 1.640625 -28.078125 C 1.640625 -31.066406 2.394531 -33.363281 3.90625 -34.96875 C 5.414062 -36.570312 7.597656 -37.375 10.453125 -37.375 C 13.296875 -37.375 15.472656 -36.570312 16.984375 -34.96875 C 18.503906 -33.363281 19.265625 -31.066406 19.265625 -28.078125 L 19.265625 -8.875 C 19.265625 -5.875 18.503906 -3.570312 16.984375 -1.96875 C 15.472656 -0.375 13.296875 0.421875 10.453125 0.421875 C 7.597656 0.421875 5.414062 -0.375 3.90625 -1.96875 C 2.394531 -3.570312 1.640625 -5.875 1.640625 -8.875 Z M 1.640625 -28.078125 "/></g></g></g><g fill="#005954" fill-opacity="1"><g transform="translate(238.480569, 105.860448)"><g><path d="M 14.40625 -10.71875 L 18.375 -36.953125 L 26.4375 -36.953125 L 26.4375 0 L 20.953125 0 L 20.953125 -26.5 L 16.9375 0 L 11.453125 0 L 7.125 -26.125 L 7.125 0 L 2.0625 0 L 2.0625 -36.953125 L 10.140625 -36.953125 Z M 14.40625 -10.71875 "/></g></g></g><g fill="#005954" fill-opacity="1"><g transform="translate(267.026507, 105.860448)"><g><path d="M 2.109375 -36.953125 L 7.921875 -36.953125 L 7.921875 0 L 2.109375 0 Z M 2.109375 -36.953125 "/></g></g></g><g fill="#005954" fill-opacity="1"><g transform="translate(277.051882, 105.860448)"><g><path d="M 7.28125 -26.765625 L 7.28125 0 L 2.0625 0 L 2.0625 -36.953125 L 9.34375 -36.953125 L 15.3125 -14.828125 L 15.3125 -36.953125 L 20.484375 -36.953125 L 20.484375 0 L 14.515625 0 Z M 7.28125 -26.765625 "/></g></g></g><g fill="#005954" fill-opacity="1"><g transform="translate(299.582598, 105.860448)"><g><path d="M 2.109375 -36.953125 L 7.921875 -36.953125 L 7.921875 0 L 2.109375 0 Z M 2.109375 -36.953125 "/></g></g></g><g fill="#005954" fill-opacity="1"><g transform="translate(309.607973, 105.860448)"><g><path d="M 7.65625 -36.953125 L 7.65625 -8.4375 C 7.65625 -7.101562 7.925781 -6.171875 8.46875 -5.640625 C 9.019531 -5.117188 9.75 -4.859375 10.65625 -4.859375 C 11.570312 -4.859375 12.300781 -5.117188 12.84375 -5.640625 C 13.394531 -6.171875 13.671875 -7.101562 13.671875 -8.4375 L 13.671875 -36.953125 L 19.15625 -36.953125 L 19.15625 -8.8125 C 19.15625 -5.820312 18.425781 -3.523438 16.96875 -1.921875 C 15.507812 -0.328125 13.351562 0.46875 10.5 0.46875 C 7.65625 0.46875 5.5 -0.328125 4.03125 -1.921875 C 2.570312 -3.523438 1.84375 -5.820312 1.84375 -8.8125 L 1.84375 -36.953125 Z M 7.65625 -36.953125 "/></g></g></g><g fill="#005954" fill-opacity="1"><g transform="translate(330.6085, 105.860448)"><g><path d="M 14.40625 -10.71875 L 18.375 -36.953125 L 26.4375 -36.953125 L 26.4375 0 L 20.953125 0 L 20.953125 -26.5 L 16.9375 0 L 11.453125 0 L 7.125 -26.125 L 7.125 0 L 2.0625 0 L 2.0625 -36.953125 L 10.140625 -36.953125 Z M 14.40625 -10.71875 "/></g></g></g><g fill="#005954" fill-opacity="1"><g transform="translate(117.596794, 149.748781)"><g><path d="M 20.90625 0 L 15.046875 0 L 14.046875 -6.703125 L 6.921875 -6.703125 L 5.90625 0 L 0.578125 0 L 6.484375 -36.953125 L 14.984375 -36.953125 Z M 7.65625 -11.71875 L 13.25 -11.71875 L 10.453125 -30.40625 Z M 7.65625 -11.71875 "/></g></g></g><g fill="#005954" fill-opacity="1"><g transform="translate(139.072201, 149.748781)"><g><path d="M 2.109375 -36.953125 L 11.296875 -36.953125 C 14.210938 -36.953125 16.382812 -36.175781 17.8125 -34.625 C 19.238281 -33.070312 19.953125 -30.800781 19.953125 -27.8125 L 19.953125 -9.125 C 19.953125 -6.132812 19.238281 -3.863281 17.8125 -2.3125 C 16.382812 -0.769531 14.210938 0 11.296875 0 L 2.109375 0 Z M 7.921875 -31.671875 L 7.921875 -5.28125 L 11.1875 -5.28125 C 12.101562 -5.28125 12.820312 -5.539062 13.34375 -6.0625 C 13.875 -6.59375 14.140625 -7.53125 14.140625 -8.875 L 14.140625 -28.078125 C 14.140625 -29.410156 13.875 -30.34375 13.34375 -30.875 C 12.820312 -31.40625 12.101562 -31.671875 11.1875 -31.671875 Z M 7.921875 -31.671875 "/></g></g></g><g fill="#005954" fill-opacity="1"><g transform="translate(160.600383, 149.748781)"><g><path d="M 14.40625 -10.71875 L 18.375 -36.953125 L 26.4375 -36.953125 L 26.4375 0 L 20.953125 0 L 20.953125 -26.5 L 16.9375 0 L 11.453125 0 L 7.125 -26.125 L 7.125 0 L 2.0625 0 L 2.0625 -36.953125 L 10.140625 -36.953125 Z M 14.40625 -10.71875 "/></g></g></g><g fill="#005954" fill-opacity="1"><g transform="translate(189.146321, 149.748781)"><g><path d="M 2.109375 -36.953125 L 7.921875 -36.953125 L 7.921875 0 L 2.109375 0 Z M 2.109375 -36.953125 "/></g></g></g><g fill="#005954" fill-opacity="1"><g transform="translate(199.171696, 149.748781)"><g><path d="M 7.28125 -26.765625 L 7.28125 0 L 2.0625 0 L 2.0625 -36.953125 L 9.34375 -36.953125 L 15.3125 -14.828125 L 15.3125 -36.953125 L 20.484375 -36.953125 L 20.484375 0 L 14.515625 0 Z M 7.28125 -26.765625 "/></g></g></g><g fill="#005954" fill-opacity="1"><g transform="translate(221.702412, 149.748781)"><g><path d="M 2.109375 -36.953125 L 7.921875 -36.953125 L 7.921875 0 L 2.109375 0 Z M 2.109375 -36.953125 "/></g></g></g><g fill="#005954" fill-opacity="1"><g transform="translate(231.727787, 149.748781)"><g><path d="M 1.375 -28.078125 C 1.375 -31.066406 2.082031 -33.363281 3.5 -34.96875 C 4.925781 -36.570312 7.066406 -37.375 9.921875 -37.375 C 12.773438 -37.375 14.910156 -36.570312 16.328125 -34.96875 C 17.753906 -33.363281 18.46875 -31.066406 18.46875 -28.078125 L 18.46875 -26.921875 L 12.984375 -26.921875 L 12.984375 -28.453125 C 12.984375 -29.785156 12.726562 -30.722656 12.21875 -31.265625 C 11.707031 -31.816406 10.992188 -32.09375 10.078125 -32.09375 C 9.160156 -32.09375 8.445312 -31.816406 7.9375 -31.265625 C 7.425781 -30.722656 7.171875 -29.785156 7.171875 -28.453125 C 7.171875 -27.179688 7.453125 -26.0625 8.015625 -25.09375 C 8.585938 -24.125 9.296875 -23.207031 10.140625 -22.34375 C 10.984375 -21.488281 11.882812 -20.628906 12.84375 -19.765625 C 13.8125 -18.898438 14.71875 -17.957031 15.5625 -16.9375 C 16.414062 -15.914062 17.125 -14.753906 17.6875 -13.453125 C 18.25 -12.148438 18.53125 -10.625 18.53125 -8.875 C 18.53125 -5.875 17.796875 -3.570312 16.328125 -1.96875 C 14.867188 -0.375 12.71875 0.421875 9.875 0.421875 C 7.019531 0.421875 4.863281 -0.375 3.40625 -1.96875 C 1.945312 -3.570312 1.21875 -5.875 1.21875 -8.875 L 1.21875 -11.140625 L 6.703125 -11.140625 L 6.703125 -8.5 C 6.703125 -7.15625 6.972656 -6.21875 7.515625 -5.6875 C 8.066406 -5.164062 8.800781 -4.90625 9.71875 -4.90625 C 10.625 -4.90625 11.347656 -5.164062 11.890625 -5.6875 C 12.441406 -6.21875 12.71875 -7.15625 12.71875 -8.5 C 12.71875 -9.757812 12.4375 -10.875 11.875 -11.84375 C 11.3125 -12.8125 10.609375 -13.726562 9.765625 -14.59375 C 8.921875 -15.457031 8.015625 -16.316406 7.046875 -17.171875 C 6.078125 -18.035156 5.171875 -18.976562 4.328125 -20 C 3.484375 -21.019531 2.78125 -22.179688 2.21875 -23.484375 C 1.65625 -24.785156 1.375 -26.316406 1.375 -28.078125 Z M 1.375 -28.078125 "/></g></g></g><g fill="#005954" fill-opacity="1"><g transform="translate(251.461944, 149.748781)"><g><path d="M 0.421875 -36.953125 L 18.375 -36.953125 L 18.375 -31.671875 L 12.296875 -31.671875 L 12.296875 0 L 6.484375 0 L 6.484375 -31.671875 L 0.421875 -31.671875 Z M 0.421875 -36.953125 "/></g></g></g><g fill="#005954" fill-opacity="1"><g transform="translate(270.246324, 149.748781)"><g><path d="M 14.25 0 C 14.175781 -0.25 14.101562 -0.476562 14.03125 -0.6875 C 13.96875 -0.894531 13.910156 -1.15625 13.859375 -1.46875 C 13.804688 -1.789062 13.769531 -2.195312 13.75 -2.6875 C 13.726562 -3.1875 13.71875 -3.804688 13.71875 -4.546875 L 13.71875 -10.34375 C 13.71875 -12.070312 13.414062 -13.285156 12.8125 -13.984375 C 12.21875 -14.691406 11.253906 -15.046875 9.921875 -15.046875 L 7.921875 -15.046875 L 7.921875 0 L 2.109375 0 L 2.109375 -36.953125 L 10.875 -36.953125 C 13.894531 -36.953125 16.082031 -36.242188 17.4375 -34.828125 C 18.789062 -33.421875 19.46875 -31.296875 19.46875 -28.453125 L 19.46875 -25.546875 C 19.46875 -21.742188 18.203125 -19.242188 15.671875 -18.046875 C 17.148438 -17.453125 18.160156 -16.476562 18.703125 -15.125 C 19.253906 -13.769531 19.53125 -12.125 19.53125 -10.1875 L 19.53125 -4.484375 C 19.53125 -3.566406 19.5625 -2.765625 19.625 -2.078125 C 19.695312 -1.398438 19.875 -0.707031 20.15625 0 Z M 7.921875 -31.671875 L 7.921875 -20.328125 L 10.1875 -20.328125 C 11.28125 -20.328125 12.132812 -20.609375 12.75 -21.171875 C 13.363281 -21.734375 13.671875 -22.753906 13.671875 -24.234375 L 13.671875 -27.875 C 13.671875 -29.207031 13.429688 -30.171875 12.953125 -30.765625 C 12.484375 -31.367188 11.738281 -31.671875 10.71875 -31.671875 Z M 7.921875 -31.671875 "/></g></g></g><g fill="#005954" fill-opacity="1"><g transform="translate(291.457914, 149.748781)"><g><path d="M 20.90625 0 L 15.046875 0 L 14.046875 -6.703125 L 6.921875 -6.703125 L 5.90625 0 L 0.578125 0 L 6.484375 -36.953125 L 14.984375 -36.953125 Z M 7.65625 -11.71875 L 13.25 -11.71875 L 10.453125 -30.40625 Z M 7.65625 -11.71875 "/></g></g></g><g fill="#005954" fill-opacity="1"><g transform="translate(312.933322, 149.748781)"><g><path d="M 0.421875 -36.953125 L 18.375 -36.953125 L 18.375 -31.671875 L 12.296875 -31.671875 L 12.296875 0 L 6.484375 0 L 6.484375 -31.671875 L 0.421875 -31.671875 Z M 0.421875 -36.953125 "/></g></g></g><g fill="#005954" fill-opacity="1"><g transform="translate(331.717702, 149.748781)"><g><path d="M 7.4375 -8.5 C 7.4375 -7.15625 7.707031 -6.210938 8.25 -5.671875 C 8.800781 -5.128906 9.535156 -4.859375 10.453125 -4.859375 C 11.367188 -4.859375 12.097656 -5.128906 12.640625 -5.671875 C 13.179688 -6.210938 13.453125 -7.15625 13.453125 -8.5 L 13.453125 -28.453125 C 13.453125 -29.785156 13.179688 -30.722656 12.640625 -31.265625 C 12.097656 -31.816406 11.367188 -32.09375 10.453125 -32.09375 C 9.535156 -32.09375 8.800781 -31.816406 8.25 -31.265625 C 7.707031 -30.722656 7.4375 -29.785156 7.4375 -28.453125 Z M 1.640625 -28.078125 C 1.640625 -31.066406 2.394531 -33.363281 3.90625 -34.96875 C 5.414062 -36.570312 7.597656 -37.375 10.453125 -37.375 C 13.296875 -37.375 15.472656 -36.570312 16.984375 -34.96875 C 18.503906 -33.363281 19.265625 -31.066406 19.265625 -28.078125 L 19.265625 -8.875 C 19.265625 -5.875 18.503906 -3.570312 16.984375 -1.96875 C 15.472656 -0.375 13.296875 0.421875 10.453125 0.421875 C 7.597656 0.421875 5.414062 -0.375 3.90625 -1.96875 C 2.394531 -3.570312 1.640625 -5.875 1.640625 -8.875 Z M 1.640625 -28.078125 "/></g></g></g><g fill="#005954" fill-opacity="1"><g transform="translate(352.612698, 149.748781)"><g><path d="M 14.25 0 C 14.175781 -0.25 14.101562 -0.476562 14.03125 -0.6875 C 13.96875 -0.894531 13.910156 -1.15625 13.859375 -1.46875 C 13.804688 -1.789062 13.769531 -2.195312 13.75 -2.6875 C 13.726562 -3.1875 13.71875 -3.804688 13.71875 -4.546875 L 13.71875 -10.34375 C 13.71875 -12.070312 13.414062 -13.285156 12.8125 -13.984375 C 12.21875 -14.691406 11.253906 -15.046875 9.921875 -15.046875 L 7.921875 -15.046875 L 7.921875 0 L 2.109375 0 L 2.109375 -36.953125 L 10.875 -36.953125 C 13.894531 -36.953125 16.082031 -36.242188 17.4375 -34.828125 C 18.789062 -33.421875 19.46875 -31.296875 19.46875 -28.453125 L 19.46875 -25.546875 C 19.46875 -21.742188 18.203125 -19.242188 15.671875 -18.046875 C 17.148438 -17.453125 18.160156 -16.476562 18.703125 -15.125 C 19.253906 -13.769531 19.53125 -12.125 19.53125 -10.1875 L 19.53125 -4.484375 C 19.53125 -3.566406 19.5625 -2.765625 19.625 -2.078125 C 19.695312 -1.398438 19.875 -0.707031 20.15625 0 Z M 7.921875 -31.671875 L 7.921875 -20.328125 L 10.1875 -20.328125 C 11.28125 -20.328125 12.132812 -20.609375 12.75 -21.171875 C 13.363281 -21.734375 13.671875 -22.753906 13.671875 -24.234375 L 13.671875 -27.875 C 13.671875 -29.207031 13.429688 -30.171875 12.953125 -30.765625 C 12.484375 -31.367188 11.738281 -31.671875 10.71875 -31.671875 Z M 7.921875 -31.671875 "/></g></g></g><g clip-path="url(#id1)"><path fill="#ff914d" d="M 108.941406 151.59375 L 22.988281 151.59375 C 22.253906 151.59375 21.519531 151.554688 20.789062 151.480469 C 20.058594 151.410156 19.332031 151.300781 18.609375 151.15625 C 17.886719 151.011719 17.175781 150.832031 16.472656 150.617188 C 15.769531 150.402344 15.078125 150.15625 14.398438 149.871094 C 13.71875 149.589844 13.054688 149.273438 12.40625 148.925781 C 11.757812 148.578125 11.128906 148.199219 10.515625 147.789062 C 9.90625 147.382812 9.3125 146.941406 8.746094 146.472656 C 8.175781 146.007812 7.632812 145.511719 7.113281 144.992188 C 6.59375 144.46875 6.101562 143.925781 5.632812 143.355469 C 5.167969 142.785156 4.726562 142.195312 4.320312 141.582031 C 3.910156 140.96875 3.53125 140.335938 3.1875 139.6875 C 2.839844 139.035156 2.523438 138.371094 2.242188 137.691406 C 1.960938 137.011719 1.710938 136.316406 1.5 135.613281 C 1.285156 134.90625 1.105469 134.191406 0.960938 133.46875 C 0.816406 132.746094 0.707031 132.019531 0.636719 131.285156 C 0.5625 130.550781 0.527344 129.816406 0.523438 129.078125 L 0.523438 68.695312 C 0.523438 67.273438 0.65625 65.863281 0.925781 64.464844 C 1.195312 63.070312 1.59375 61.710938 2.128906 60.394531 C 2.660156 59.074219 3.3125 57.820312 4.089844 56.628906 C 4.863281 55.4375 5.746094 54.332031 6.734375 53.308594 L 52.714844 5.652344 C 53.140625 5.207031 53.589844 4.785156 54.0625 4.382812 C 54.53125 3.984375 55.019531 3.609375 55.527344 3.257812 C 56.035156 2.90625 56.5625 2.582031 57.101562 2.28125 C 57.640625 1.984375 58.195312 1.714844 58.765625 1.472656 C 59.332031 1.230469 59.910156 1.015625 60.5 0.832031 C 61.089844 0.648438 61.6875 0.496094 62.292969 0.371094 C 62.894531 0.25 63.503906 0.15625 64.121094 0.09375 C 64.734375 0.03125 65.347656 0 65.964844 0 C 66.582031 0 67.199219 0.03125 67.8125 0.09375 C 68.425781 0.15625 69.035156 0.25 69.640625 0.371094 C 70.246094 0.496094 70.84375 0.648438 71.433594 0.832031 C 72.019531 1.015625 72.601562 1.230469 73.167969 1.472656 C 73.734375 1.714844 74.289062 1.984375 74.832031 2.28125 C 75.371094 2.582031 75.894531 2.90625 76.402344 3.257812 C 76.910156 3.609375 77.402344 3.984375 77.871094 4.382812 C 78.339844 4.785156 78.789062 5.207031 79.21875 5.652344 L 129.484375 57.75 C 129.800781 58.074219 130.078125 58.421875 130.324219 58.800781 C 130.570312 59.179688 130.777344 59.578125 130.941406 60 C 131.109375 60.417969 131.234375 60.847656 131.316406 61.292969 C 131.398438 61.738281 131.433594 62.183594 131.429688 62.636719 C 131.421875 63.085938 131.371094 63.53125 131.277344 63.972656 C 131.183594 64.414062 131.046875 64.84375 130.867188 65.257812 C 130.6875 65.671875 130.46875 66.0625 130.214844 66.433594 C 129.957031 66.804688 129.667969 67.148438 129.34375 67.460938 C 129.019531 67.777344 128.667969 68.054688 128.292969 68.296875 C 127.914062 68.542969 127.511719 68.746094 127.09375 68.914062 C 126.675781 69.078125 126.246094 69.199219 125.800781 69.28125 C 125.359375 69.359375 124.910156 69.394531 124.460938 69.386719 C 124.011719 69.378906 123.566406 69.324219 123.125 69.230469 C 122.6875 69.132812 122.261719 68.992188 121.847656 68.8125 C 121.4375 68.632812 121.042969 68.410156 120.675781 68.152344 C 120.304688 67.894531 119.964844 67.601562 119.65625 67.277344 L 69.382812 15.199219 C 69.164062 14.964844 68.925781 14.757812 68.664062 14.570312 C 68.402344 14.386719 68.121094 14.230469 67.828125 14.105469 C 67.535156 13.976562 67.230469 13.878906 66.917969 13.816406 C 66.601562 13.75 66.285156 13.71875 65.964844 13.71875 C 65.644531 13.71875 65.328125 13.75 65.015625 13.816406 C 64.703125 13.878906 64.398438 13.976562 64.101562 14.105469 C 63.808594 14.230469 63.53125 14.386719 63.269531 14.570312 C 63.007812 14.757812 62.765625 14.964844 62.546875 15.199219 L 16.5625 62.835938 C 15.804688 63.625 15.222656 64.527344 14.816406 65.542969 C 14.410156 66.558594 14.210938 67.613281 14.21875 68.710938 L 14.21875 129.078125 C 14.21875 129.65625 14.277344 130.230469 14.390625 130.796875 C 14.503906 131.363281 14.671875 131.914062 14.890625 132.449219 C 15.113281 132.984375 15.382812 133.488281 15.703125 133.972656 C 16.023438 134.453125 16.390625 134.894531 16.796875 135.304688 C 17.207031 135.714844 17.648438 136.078125 18.128906 136.402344 C 18.609375 136.722656 19.113281 136.992188 19.648438 137.214844 C 20.179688 137.4375 20.730469 137.605469 21.296875 137.71875 C 21.859375 137.832031 22.433594 137.886719 23.007812 137.890625 L 108.960938 137.890625 C 109.410156 137.890625 109.855469 137.933594 110.296875 138.019531 C 110.734375 138.109375 111.164062 138.238281 111.578125 138.410156 C 111.992188 138.582031 112.386719 138.792969 112.761719 139.042969 C 113.132812 139.292969 113.480469 139.578125 113.796875 139.894531 C 114.113281 140.214844 114.398438 140.558594 114.644531 140.933594 C 114.894531 141.308594 115.105469 141.703125 115.277344 142.117188 C 115.449219 142.535156 115.578125 142.964844 115.667969 143.40625 C 115.753906 143.84375 115.796875 144.292969 115.796875 144.742188 C 115.796875 145.191406 115.753906 145.636719 115.667969 146.078125 C 115.578125 146.519531 115.449219 146.949219 115.277344 147.363281 C 115.105469 147.777344 114.894531 148.175781 114.644531 148.546875 C 114.398438 148.921875 114.113281 149.269531 113.796875 149.585938 C 113.480469 149.90625 113.132812 150.1875 112.761719 150.4375 C 112.386719 150.6875 111.992188 150.898438 111.578125 151.070312 C 111.164062 151.242188 110.734375 151.375 110.296875 151.460938 C 109.855469 151.550781 109.410156 151.59375 108.960938 151.59375 Z M 108.941406 151.59375 " fill-opacity="1" fill-rule="nonzero"/></g><g clip-path="url(#id2)"><path fill="#005954" d="M 78.058594 103.511719 C 78.058594 98.121094 73.863281 93.75 68.6875 93.75 C 63.511719 93.75 59.316406 98.121094 59.316406 103.511719 C 59.316406 107.285156 61.367188 110.554688 64.371094 112.179688 L 60.296875 129.972656 L 77.078125 129.972656 L 73.007812 112.179688 C 76.007812 110.554688 78.058594 107.285156 78.058594 103.511719 Z M 78.058594 103.511719 " fill-opacity="1" fill-rule="nonzero"/></g><g clip-path="url(#id3)"><path fill="#ff914d" d="M 112.515625 155.941406 L 25.679688 155.941406 C 24.9375 155.941406 24.195312 155.90625 23.457031 155.832031 C 22.71875 155.757812 21.984375 155.648438 21.253906 155.5 C 20.527344 155.355469 19.808594 155.175781 19.097656 154.957031 C 18.386719 154.742188 17.6875 154.492188 17 154.207031 C 16.3125 153.921875 15.644531 153.605469 14.988281 153.253906 C 14.332031 152.902344 13.695312 152.519531 13.078125 152.105469 C 12.460938 151.691406 11.863281 151.25 11.289062 150.777344 C 10.714844 150.308594 10.167969 149.808594 9.640625 149.28125 C 9.117188 148.757812 8.617188 148.207031 8.144531 147.632812 C 7.675781 147.054688 7.230469 146.460938 6.820312 145.84375 C 6.40625 145.222656 6.023438 144.585938 5.671875 143.929688 C 5.324219 143.273438 5.003906 142.605469 4.71875 141.917969 C 4.4375 141.230469 4.183594 140.53125 3.96875 139.820312 C 3.753906 139.109375 3.570312 138.386719 3.425781 137.660156 C 3.28125 136.929688 3.171875 136.195312 3.097656 135.453125 C 3.023438 134.714844 2.984375 133.972656 2.984375 133.230469 L 2.984375 72.308594 C 2.980469 70.875 3.117188 69.453125 3.390625 68.042969 C 3.660156 66.636719 4.066406 65.265625 4.605469 63.9375 C 5.140625 62.605469 5.800781 61.339844 6.585938 60.136719 C 7.367188 58.933594 8.257812 57.820312 9.257812 56.789062 L 55.710938 8.710938 C 56.140625 8.261719 56.597656 7.835938 57.070312 7.429688 C 57.546875 7.027344 58.039062 6.648438 58.554688 6.292969 C 59.066406 5.941406 59.597656 5.613281 60.144531 5.3125 C 60.6875 5.011719 61.25 4.738281 61.824219 4.492188 C 62.398438 4.25 62.980469 4.035156 63.578125 3.847656 C 64.171875 3.664062 64.773438 3.507812 65.386719 3.382812 C 65.996094 3.257812 66.613281 3.164062 67.234375 3.101562 C 67.851562 3.039062 68.476562 3.007812 69.097656 3.007812 C 69.722656 3.007812 70.34375 3.039062 70.964844 3.101562 C 71.585938 3.164062 72.199219 3.257812 72.8125 3.382812 C 73.421875 3.507812 74.023438 3.664062 74.621094 3.847656 C 75.214844 4.035156 75.800781 4.25 76.375 4.492188 C 76.949219 4.738281 77.507812 5.011719 78.054688 5.3125 C 78.601562 5.613281 79.128906 5.941406 79.644531 6.292969 C 80.15625 6.648438 80.652344 7.027344 81.125 7.429688 C 81.601562 7.835938 82.054688 8.261719 82.488281 8.710938 L 133.269531 61.269531 C 133.585938 61.59375 133.871094 61.949219 134.117188 62.332031 C 134.367188 62.710938 134.574219 63.113281 134.742188 63.539062 C 134.910156 63.960938 135.035156 64.394531 135.121094 64.84375 C 135.203125 65.289062 135.238281 65.742188 135.234375 66.199219 C 135.226562 66.652344 135.175781 67.101562 135.082031 67.546875 C 134.984375 67.992188 134.847656 68.425781 134.667969 68.84375 C 134.484375 69.261719 134.265625 69.65625 134.007812 70.03125 C 133.75 70.40625 133.457031 70.75 133.128906 71.066406 C 132.800781 71.382812 132.445312 71.664062 132.0625 71.910156 C 131.679688 72.15625 131.277344 72.363281 130.855469 72.53125 C 130.433594 72.695312 129.996094 72.820312 129.546875 72.902344 C 129.101562 72.980469 128.648438 73.019531 128.195312 73.007812 C 127.738281 73 127.289062 72.949219 126.847656 72.851562 C 126.402344 72.753906 125.972656 72.613281 125.554688 72.429688 C 125.136719 72.246094 124.742188 72.023438 124.371094 71.765625 C 123.996094 71.503906 123.652344 71.207031 123.339844 70.878906 L 72.550781 18.34375 C 72.332031 18.105469 72.085938 17.894531 71.824219 17.707031 C 71.558594 17.523438 71.277344 17.363281 70.980469 17.238281 C 70.683594 17.109375 70.375 17.011719 70.058594 16.945312 C 69.742188 16.878906 69.421875 16.847656 69.097656 16.847656 C 68.773438 16.847656 68.453125 16.878906 68.136719 16.945312 C 67.820312 17.011719 67.515625 17.109375 67.21875 17.238281 C 66.917969 17.363281 66.640625 17.523438 66.375 17.707031 C 66.109375 17.894531 65.867188 18.105469 65.644531 18.34375 L 19.1875 66.402344 C 18.421875 67.195312 17.835938 68.105469 17.425781 69.132812 C 17.015625 70.15625 16.8125 71.222656 16.820312 72.324219 L 16.820312 133.230469 C 16.820312 133.8125 16.878906 134.390625 16.992188 134.960938 C 17.105469 135.535156 17.277344 136.089844 17.5 136.628906 C 17.722656 137.167969 17.996094 137.679688 18.320312 138.164062 C 18.644531 138.648438 19.011719 139.097656 19.425781 139.511719 C 19.835938 139.921875 20.285156 140.292969 20.769531 140.617188 C 21.253906 140.941406 21.765625 141.214844 22.304688 141.4375 C 22.84375 141.660156 23.398438 141.832031 23.96875 141.945312 C 24.539062 142.058594 25.117188 142.117188 25.699219 142.117188 L 112.535156 142.117188 C 112.988281 142.117188 113.4375 142.160156 113.882812 142.25 C 114.328125 142.339844 114.761719 142.46875 115.179688 142.644531 C 115.597656 142.816406 115.996094 143.03125 116.375 143.28125 C 116.75 143.535156 117.097656 143.820312 117.421875 144.140625 C 117.742188 144.464844 118.027344 144.8125 118.277344 145.191406 C 118.53125 145.566406 118.742188 145.964844 118.917969 146.382812 C 119.089844 146.804688 119.222656 147.238281 119.3125 147.679688 C 119.398438 148.125 119.441406 148.578125 119.441406 149.03125 C 119.441406 149.484375 119.398438 149.933594 119.3125 150.378906 C 119.222656 150.824219 119.089844 151.257812 118.917969 151.675781 C 118.742188 152.09375 118.53125 152.492188 118.277344 152.871094 C 118.027344 153.25 117.742188 153.597656 117.421875 153.917969 C 117.097656 154.238281 116.75 154.527344 116.375 154.777344 C 115.996094 155.03125 115.597656 155.242188 115.179688 155.417969 C 114.761719 155.589844 114.328125 155.722656 113.882812 155.808594 C 113.4375 155.898438 112.988281 155.941406 112.535156 155.941406 Z M 112.515625 155.941406 " fill-opacity="1" fill-rule="nonzero"/></g></svg>