<svg width="776" height="497" viewBox="0 0 776 497" fill="none" xmlns="http://www.w3.org/2000/svg">
<g clip-path="url(#clip0_64_1077)">
<path d="M566.222 121.036C566.222 168.719 492.819 309.339 450.732 386.046C447.877 391.251 443.705 395.587 438.647 398.605C433.589 401.623 427.828 403.215 421.961 403.215C416.094 403.215 410.334 401.623 405.276 398.605C400.217 395.587 396.045 391.251 393.191 386.046C351.104 309.339 277.701 168.719 277.701 121.036C277.701 54.1896 342.288 2.26498e-05 421.961 2.26498e-05C501.634 2.26498e-05 566.222 54.1896 566.222 121.036Z" fill="#FF914D"/>
<path d="M422.639 199.434C466.029 199.434 501.203 163.718 501.203 119.66C501.203 75.6027 466.029 39.8868 422.639 39.8868C379.249 39.8868 344.074 75.6027 344.074 119.66C344.074 163.718 379.249 199.434 422.639 199.434Z" fill="white"/>
<path d="M94.7945 191.841C120.783 191.841 141.851 170.449 141.851 144.06C141.851 117.671 120.783 96.2786 94.7945 96.2786C68.8056 96.2786 47.7375 117.671 47.7375 144.06C47.7375 170.449 68.8056 191.841 94.7945 191.841Z" fill="#005954"/>
<path d="M421.961 497C484.871 497 535.869 493.003 535.869 488.071C535.869 483.14 484.871 479.143 421.961 479.143C359.052 479.143 308.054 483.14 308.054 488.071C308.054 493.003 359.052 497 421.961 497Z" fill="#FF914D"/>
<path opacity="0.4" d="M85.213 186.551C87.608 171.565 77.5854 157.446 62.8269 155.014C48.0684 152.582 34.1629 162.759 31.7679 177.744C29.3729 192.73 39.3955 206.85 54.1539 209.282C68.9124 211.713 82.8181 201.537 85.213 186.551Z" fill="#FF914D"/>
<path d="M691.868 323.95C478.674 242.801 218.653 321.914 68.5273 483.745C67.6739 484.652 66.8206 485.574 65.9943 486.496H63.7051C64.4907 485.574 65.3034 484.652 66.1026 483.745C219.344 309.604 475.911 240.201 691.868 323.95Z" fill="#3F3D56"/>
<path d="M750.128 350.867C731.284 340.662 711.825 331.672 691.868 323.95C711.877 331.545 731.344 340.538 750.128 350.867Z" fill="#3F3D56"/>
<path opacity="0.4" d="M633.447 269.903C649.845 269.903 663.139 256.405 663.139 239.754C663.139 223.103 649.845 209.605 633.447 209.605C617.048 209.605 603.755 223.103 603.755 239.754C603.755 256.405 617.048 269.903 633.447 269.903Z" fill="#FF914D"/>
<path d="M636.753 471.656C639.048 480.269 646.907 485.603 646.907 485.603C646.907 485.603 651.046 476.973 648.751 468.361C646.457 459.748 638.598 454.414 638.598 454.414C638.598 454.414 634.458 463.044 636.753 471.656Z" fill="#3F3D56"/>
<path d="M640.125 469.805C646.421 476.029 647.19 485.596 647.19 485.596C647.19 485.596 637.751 485.073 631.455 478.849C625.158 472.626 624.389 463.059 624.389 463.059C624.389 463.059 633.828 463.582 640.125 469.805Z" fill="#FF914D"/>
<path d="M4.55133 351.906V365.192L3.90112 365.907V351.768C4.11785 351.809 4.33464 351.864 4.55133 351.906Z" fill="#3F3D56"/>
<path d="M46.2446 483.738C46.055 484.055 45.8518 484.371 45.6486 484.687H3.90112V352.566L4.55133 351.906L10.0915 358.301V348.948H27.7007V378.63L45.4861 399.137L45.6486 399.33C45.8654 400.017 46.0685 400.705 46.2717 401.393C46.2731 401.403 46.2779 401.413 46.2853 401.42C48.9526 410.088 51.1414 418.899 52.8413 427.814C56.7154 448.844 56.1329 468.128 46.2446 483.738Z" fill="#CCCCCC"/>
<path d="M18.5596 424.936H7.35132V434.42H18.5596V424.936Z" fill="#3F3D56"/>
<path d="M18.5596 442.008H7.35132V451.491H18.5596V442.008Z" fill="#3F3D56"/>
<path d="M363.818 406.917L358.214 397.433L410.519 351.91C449.188 333.011 495.8 338.464 545.019 351.91V365.187L496.45 418.298L440.408 429.678L363.818 406.917Z" fill="#3F3D56"/>
<path d="M568.171 378.625C577.459 368.134 578.75 358.158 568.171 348.947H550.562V358.306L545.019 351.91L500.186 397.433L492.713 405.02L483.373 442.957L500.186 484.685H586.115V399.33L568.171 378.625Z" fill="#CCCCCC"/>
<path d="M358.214 397.433H500.185V484.685H358.214C341.038 465.817 349.961 431.426 358.214 397.433Z" fill="#F2F2F2"/>
<path d="M480.571 424.936H450.682V451.491H480.571V424.936Z" fill="#3F3D56"/>
<path d="M438.54 423.988H412.387V484.685H438.54V423.988Z" fill="#CCCCCC"/>
<path d="M382.499 433.472V423.989H371.291V433.472H381.564H382.499Z" fill="#3F3D56"/>
<path d="M381.564 441.059H371.291V450.544H382.499V441.059H381.564Z" fill="#3F3D56"/>
<path d="M401.179 423.988H389.971V433.472H401.179V423.988Z" fill="#3F3D56"/>
<path d="M401.179 441.059H389.971V450.543H401.179V441.059Z" fill="#3F3D56"/>
<path d="M540.349 434.421V424.936H529.14V434.421H539.414H540.349Z" fill="#3F3D56"/>
<path d="M539.414 442.008H529.14V451.491H540.349V442.008H539.414Z" fill="#3F3D56"/>
<path d="M559.029 424.936H547.82V434.42H559.029V424.936Z" fill="#3F3D56"/>
<path d="M559.029 442.008H547.82V451.491H559.029V442.008Z" fill="#3F3D56"/>
<path d="M111.028 247.587L101.688 239.999L153.993 192.579H286.623V234.309L200.694 293.11L111.028 247.587Z" fill="#3F3D56"/>
<path d="M310.805 219.179V193.526H293.196V199.809L286.623 192.579L243.658 239.999L226.847 251.38L200.778 444.767L240.091 484.685H331.456C345.456 413.181 356.556 339.725 331.456 241.895L310.805 219.179Z" fill="#CCCCCC"/>
<path d="M101.687 239.999H243.658V484.685H101.687C86.1516 389.627 78.5642 301.473 101.687 239.999Z" fill="#F2F2F2"/>
<path d="M182.947 424.936H156.794V484.685H182.947V424.936Z" fill="#CCCCCC"/>
<path d="M128.774 442.008V432.525H117.566V442.008H127.84H128.774Z" fill="#3F3D56"/>
<path d="M127.84 449.595H117.566V459.08H128.774V449.595H127.84Z" fill="#3F3D56"/>
<path d="M147.454 432.524H136.246V442.008H147.454V432.524Z" fill="#3F3D56"/>
<path d="M204.43 449.595H194.156V459.08H205.363V449.595H204.43Z" fill="#3F3D56"/>
<path d="M224.044 432.524H212.836V442.008H224.044V432.524Z" fill="#3F3D56"/>
<path d="M224.044 449.595H212.836V459.079H224.044V449.595Z" fill="#3F3D56"/>
<path d="M283.821 252.328V242.845H272.613V252.328H282.887H283.821Z" fill="#3F3D56"/>
<path d="M282.887 259.916H272.613V269.4H283.821V259.916H282.887Z" fill="#3F3D56"/>
<path d="M302.502 242.844H291.293V252.328H302.502V242.844Z" fill="#3F3D56"/>
<path d="M302.502 259.915H291.293V269.399H302.502V259.915Z" fill="#3F3D56"/>
<path d="M283.821 305.44V295.955H272.613V305.44H282.887H283.821Z" fill="#3F3D56"/>
<path d="M282.887 313.026H272.613V322.51H283.821V313.026H282.887Z" fill="#3F3D56"/>
<path d="M302.502 295.955H291.293V305.438H302.502V295.955Z" fill="#3F3D56"/>
<path d="M302.502 313.026H291.293V322.51H302.502V313.026Z" fill="#3F3D56"/>
<path d="M283.821 358.55V349.065H272.613V358.55H282.887H283.821Z" fill="#3F3D56"/>
<path d="M282.887 366.136H272.613V375.62H283.821V366.136H282.887Z" fill="#3F3D56"/>
<path d="M302.502 349.065H291.293V358.549H302.502V349.065Z" fill="#3F3D56"/>
<path d="M302.502 366.136H291.293V375.62H302.502V366.136Z" fill="#3F3D56"/>
<path d="M283.821 411.66V402.175H272.613V411.66H282.887H283.821Z" fill="#3F3D56"/>
<path d="M282.887 419.246H272.613V428.73H283.821V419.246H282.887Z" fill="#3F3D56"/>
<path d="M302.502 402.175H291.293V411.659H302.502V402.175Z" fill="#3F3D56"/>
<path d="M302.502 419.246H291.293V428.73H302.502V419.246Z" fill="#3F3D56"/>
<path d="M117.566 252.328H225.912V275.09C191.184 265.358 154.969 266.056 117.566 275.09V252.328Z" fill="#3F3D56"/>
<path d="M117.566 297.851C151.382 307.968 187.497 307.968 225.912 297.851V320.613H117.566V297.851Z" fill="#3F3D56"/>
<path d="M117.566 343.374H225.912V366.136C188.988 354.164 152.834 353.6 117.566 366.136V343.374Z" fill="#3F3D56"/>
<path d="M117.566 388.897C152.901 402.725 189.049 402.15 225.912 388.897V411.659H117.566V388.897Z" fill="#3F3D56"/>
<path d="M699.874 349.354H776V386.599L769.2 388.76L746.579 395.928L711.089 387.581L675.641 379.239L656.921 374.836L647.574 371.325C655.349 360.492 669.491 351.973 699.874 349.354Z" fill="#3F3D56"/>
<path d="M776 371.325V484.687H647.574C647.533 484.617 647.506 484.554 647.466 484.484V484.477C647.435 484.398 647.399 484.321 647.357 484.248C645.353 480.15 643.555 476.064 641.966 471.988C628.488 437.495 629.951 403.913 647.574 371.325H776Z" fill="#F2F2F2"/>
<path d="M728.834 424.936H702.682V484.685H728.834V424.936Z" fill="#CCCCCC"/>
<path d="M674.661 442.008V432.525H663.454V442.008H673.728H674.661Z" fill="#3F3D56"/>
<path d="M673.728 449.595H663.454V459.08H674.661V449.595H673.728Z" fill="#3F3D56"/>
<path d="M693.342 432.524H682.133V442.008H693.342V432.524Z" fill="#3F3D56"/>
<path d="M693.342 449.595H682.133V459.079H693.342V449.595Z" fill="#3F3D56"/>
<path d="M751.251 442.008V432.525H740.043V442.008H750.317H751.251Z" fill="#3F3D56"/>
<path d="M750.317 449.595H740.043V459.08H751.251V449.595H750.317Z" fill="#3F3D56"/>
<path d="M769.931 432.524H758.723V442.008H769.931V432.524Z" fill="#3F3D56"/>
<path d="M769.931 449.595H758.723V459.079H769.931V449.595Z" fill="#3F3D56"/>
<path d="M675.644 305.341H691.744C707.624 305.341 722.853 311.746 734.081 323.147C745.31 334.548 751.618 350.012 751.618 366.136H675.644V305.341Z" fill="#3F3D56"/>
<path d="M188.003 140.292H204.103C219.982 140.292 235.211 146.697 246.44 158.098C257.668 169.499 263.976 184.963 263.976 201.087H188.003V140.292Z" fill="#3F3D56"/>
<path d="M445.369 292.962H461.469C477.349 292.962 492.578 299.367 503.806 310.768C515.035 322.17 521.343 337.633 521.343 353.757H445.369V292.962Z" fill="#3F3D56"/>
<path d="M751.618 388.897H675.644V411.659H751.618V388.897Z" fill="#3F3D56"/>
<path d="M776 483.745H3.90137V486.496H776V483.745Z" fill="#3F3D56"/>
<path d="M75.1115 375.081H72.4023V483.738H75.1115V375.081Z" fill="#3F3D56"/>
<path d="M100.113 388.928C100.286 426.923 73.9598 457.848 73.9598 457.848C73.9598 457.848 40.2458 426.513 47.1816 389.176C54.1571 351.626 75.8969 320.416 73.3353 320.257C73.3353 320.257 99.941 350.933 100.113 388.928Z" fill="#FF914D"/>
<path d="M346.023 375.081H343.314V483.738H346.023V375.081Z" fill="#3F3D56"/>
<path d="M371.025 388.928C373.467 426.842 344.872 457.848 344.872 457.848C344.872 457.848 318.266 427.171 318.094 389.176C317.921 351.181 344.247 320.257 344.247 320.257C341.681 330.672 369.05 358.251 371.025 388.928Z" fill="#FF914D"/>
<path d="M170.015 198.456L287.691 192.611L337.055 234.449L328.327 242.45L250.157 240.663L170.015 198.456Z" fill="#3F3D56"/>
<path d="M52.5975 392.618L46.2582 398.436L45.4861 399.137L43.8742 400.623L3.90114 399.715V351.768C2.60076 351.479 1.30038 351.204 0 350.943L3.23742 350.778L3.90114 351.342L10.0915 356.582L27.7007 371.519L47.3689 388.189L52.5975 392.618Z" fill="#3F3D56"/>
<path d="M427.381 356.628L545.057 350.783L594.421 392.621L585.694 400.622L507.523 398.835L427.381 356.628Z" fill="#3F3D56"/>
</g>
<defs>
<clipPath id="clip0_64_1077">
<rect width="776" height="497" fill="white"/>
</clipPath>
</defs>
</svg>
